<?xml version="1.0" standalone="no"?>
<!DOCTYPE svg PUBLIC "-//W3C//DTD SVG 20010904//EN"
 "http://www.w3.org/TR/2001/REC-SVG-20010904/DTD/svg10.dtd">
<svg version="1.0" xmlns="http://www.w3.org/2000/svg"
 width="124.000000pt" height="35.000000pt" viewBox="0 0 309.000000 87.000000"
 preserveAspectRatio="xMidYMid meet">

<g transform="translate(0.000000,87.000000) scale(0.100000,-0.100000)"
fill="#3366ff" stroke="none">
<path d="M2095 748 c-61 -19 -61 -19 -37 -29 22 -8 22 -10 22 -214 0 -204 0
-206 -22 -215 -29 -11 -27 -12 50 -14 34 -1 62 2 62 6 0 4 -9 8 -20 8 -18 0
-20 7 -20 83 0 64 4 89 20 114 35 58 94 70 117 23 15 -30 17 -183 3 -211 -11
-20 -13 -20 60 -23 34 -1 40 9 10 17 -19 5 -20 14 -20 125 0 118 0 121 -26
141 -15 12 -36 21 -46 21 -34 0 -89 -32 -101 -59 -10 -21 -13 -4 -17 105 l-5
131 -30 -9z"/>
<path d="M185 721 c-67 -16 -105 -59 -105 -116 0 -36 30 -63 133 -119 59 -32
95 -58 108 -79 24 -41 24 -43 -7 -74 -23 -23 -31 -25 -101 -21 -70 3 -77 6
-105 37 -16 18 -31 31 -33 29 -2 -1 -6 -19 -10 -38 -6 -33 -4 -37 30 -53 21
-10 60 -17 96 -17 103 0 168 45 176 122 7 61 -26 97 -138 153 -77 39 -119 73
-119 97 0 5 9 17 20 28 40 40 180 20 180 -26 0 -8 5 -14 10 -14 6 0 10 11 10
24 0 13 3 31 6 39 4 10 -7 17 -40 26 -49 12 -66 12 -111 2z"/>
<path d="M1798 718 c-51 -14 -88 -59 -88 -108 0 -46 26 -71 130 -126 86 -45
120 -78 120 -115 0 -40 -32 -59 -103 -59 -67 0 -121 19 -137 49 -17 33 -30 25
-30 -20 0 -36 3 -41 35 -55 79 -33 213 -6 250 49 19 29 22 95 7 124 -13 24
-55 52 -152 100 -55 28 -77 45 -84 65 -15 43 14 68 80 68 65 0 100 -13 109
-40 9 -30 25 -14 25 25 0 31 -4 35 -37 44 -45 13 -75 12 -125 -1z"/>
<path d="M933 566 c-17 -8 -38 -27 -47 -43 l-15 -28 -1 39 c0 35 -2 38 -22 31
-13 -3 -33 -9 -45 -12 -28 -7 -30 -19 -3 -26 19 -5 20 -14 20 -191 0 -184 0
-187 -22 -196 -17 -6 -5 -9 47 -9 52 0 64 3 48 9 -20 8 -23 16 -23 72 l0 63
45 -3 c33 -3 54 2 79 17 76 47 113 198 64 256 -28 31 -81 41 -125 21z m90 -57
c36 -44 15 -155 -38 -197 -33 -26 -62 -28 -93 -6 -19 13 -22 24 -22 89 0 70 2
75 35 111 30 32 39 36 67 30 18 -3 41 -16 51 -27z"/>
<path d="M1225 566 c-103 -47 -134 -183 -61 -261 30 -32 39 -35 87 -35 54 0
89 15 117 48 21 27 13 34 -14 13 -37 -29 -85 -36 -121 -17 -32 16 -63 69 -63
105 0 19 6 21 53 21 28 0 76 3 106 7 l53 6 -6 35 c-11 70 -86 108 -151 78z
m95 -59 c8 -14 12 -28 10 -30 -3 -3 -40 -8 -82 -12 -87 -8 -96 -1 -58 48 34
43 104 40 130 -6z"/>
<path d="M1594 570 c-12 -4 -33 -23 -48 -42 l-26 -33 0 39 c0 31 -3 37 -16 32
-9 -3 -27 -9 -40 -12 -26 -7 -33 -24 -10 -24 10 0 16 -18 21 -62 10 -109 3
-178 -20 -178 -8 0 -15 -3 -15 -7 0 -7 18 -8 105 -3 29 2 29 2 5 9 -23 6 -25
12 -28 71 -4 79 1 100 33 138 30 35 60 45 79 26 22 -21 26 -17 26 21 0 30 -3
35 -22 34 -13 0 -33 -4 -44 -9z"/>
<path d="M2515 564 c-72 -37 -105 -89 -105 -165 0 -46 4 -55 39 -90 35 -35 44
-39 88 -39 91 0 163 76 163 172 0 102 -99 167 -185 122z m91 -40 c35 -24 54
-65 54 -119 0 -38 -5 -52 -29 -76 -42 -41 -89 -40 -138 4 -31 29 -37 41 -41
90 -4 52 -2 58 26 87 35 35 87 40 128 14z"/>
<path d="M2903 566 c-18 -8 -38 -24 -45 -35 -18 -29 -25 -26 -20 9 5 34 4 34
-49 18 -43 -12 -49 -23 -19 -31 19 -5 20 -14 20 -191 0 -184 0 -187 -22 -196
-17 -6 -5 -9 47 -9 52 0 64 3 48 9 -20 8 -23 16 -23 72 l0 63 50 -3 c48 -4 53
-2 94 40 50 49 71 108 63 177 -3 24 -13 52 -24 62 -26 26 -80 33 -120 15z m78
-55 c63 -63 21 -199 -67 -217 -37 -7 -72 20 -75 56 -7 87 1 122 35 156 42 42
69 43 107 5z"/>
<path d="M440 558 c-34 -10 -34 -11 -12 -21 21 -9 22 -16 22 -109 0 -132 13
-158 76 -158 39 0 51 5 80 34 l34 34 0 -28 c0 -25 4 -28 41 -32 43 -4 63 6 29
15 -19 5 -20 14 -20 142 l0 137 -32 -7 c-45 -10 -53 -16 -34 -27 13 -7 16 -25
16 -87 0 -73 -2 -81 -29 -110 -31 -33 -76 -42 -99 -19 -8 8 -12 52 -12 130 0
128 2 124 -60 106z"/>
</g>
</svg>
